<?xml version="1.0" encoding="UTF-8"?>
<svg id="_レイヤー_1" data-name="レイヤー_1" xmlns="http://www.w3.org/2000/svg" viewBox="0 0 44.23 43.4">
  <defs>
    <style>
      .cls-1 {
        fill: #282828;
        fill-rule: evenodd;
      }
    </style>
  </defs>
  <path class="cls-1" d="M16.92,10.2c.14-.5-.2-.91-.02-1.57,1.3,1.8,2.58,3.61,3.9,5.4,1.36,1.85,2.71,3.72,3.96,6.05.58-1.52,0-2.58-.35-3.62-.59-1.73-1.38-3.4-1.95-5.15-1-3.1-1.26-6.26-.38-9.44.58-2.1,1.53-2.41,3.26-1.05,3.26,2.54,4.18,6.11,4.15,10-.01,1.41.05,2.88-.89,4.62,1.8-.84,2.44-2.06,3.24-3.08.69-.89,1.39-1.75,2.42-2.27,2.22-1.12,4.14-.49,5.1,1.78,1.24,2.93.7,5.62-1.29,8.04-.44.54-.99.99-1.65,1.64,1.03.39,1.97.18,2.86.19,2.3.02,3.73,1.28,4.6,3.23.81,1.81.11,3.45-.94,4.93-1.05,1.47-2.53,2.42-4.15,3.16-.84.38-1.74.48-2.56.06-1.91-.97-4.15-1.26-5.74-2.87-.21-.21-.53-.36-1.06-.15.06,2.52.04,5.12-.51,7.67-.48,2.2-1.55,4.02-3.63,5.07-2.29,1.16-4.21.52-4.98-1.88-.76-2.34-1.43-4.76-.15-7.21.39-.74.66-1.58.37-2.68-.98.83-1.84,1.53-2.65,2.27-1.92,1.77-4.25,2.81-6.63,3.76-1.07.43-2.21.62-3.19-.17-1.09-.88-.95-2.18-.68-3.34.43-1.84,1.35-3.41,3.05-4.4.75-.44,1.49-.88,2.48-1.46-1.04-.64-2.08.12-2.85-.4-.8-.54-1.64-.96-2.55-1.29-.69-.25-1.06-.17-1.51.57-.81,1.34-2.09,1.58-3.49.95C1.06,26.89,0,24.67.4,23.12c.38-1.5,1.35-2.07,2.87-1.64,1.24.35,2.45.68,2.71,2.3.19,1.26,1.39,1.37,2.3,1.68.31-.12.44-.29.49-.54.19-1.03.66-1.83,1.85-1.83,1.25,0,1.58.93,1.78,1.9.12.59.21,1.11.97,1.09,2.54-.05,5.07.55,7.59.33.29-.81-.34-.87-.71-1.05-1.87-.9-3.72-1.87-5.65-2.61-3.49-1.32-6.54-3.3-9.34-5.71-.63-.55-1.05-1.09-1.95-.24-.81.77-1.67.11-2.26-.54-.7-.77-1.36-1.68-.85-2.8.53-1.14,2.5-1.11,3.18.21,1.5,2.93,4.31,4.1,7.03,5.62.37-.76-.52-1.24-.39-1.94.15-.76.33-1.4,1.14-1.65.71-.22,1.3.06,1.68.6,1.04,1.48,1.64,2.18-.11,4.19,1.82,1.16,8,3.68,9.44,3.82-1.1-1.86-2.72-3.2-4.01-4.81-2.04-2.55-4.25-4.99-6.91-6.94-.63-.46-1.19-.9-2.11-.91-1.56-.02-2.74-1.48-2.71-3.02.02-1.04.83-1.94,1.74-1.94,1.03,0,2.67,1.24,2.45,2.18-.62,2.58,1.19,3.27,2.85,4.15.33.24.66.48.98.72,2.41,3.24,7.6,8.52,9.13,9.28.17-2.95-2.82-8.67-6.75-12.91l.09.08ZM27.07,25.62c1.39.68,2.72.81,4.05.93.87.08,1.79,0,2.61.27,2.42.76,4.89.76,7.36.68,1.76-.05,2.21-.86,1.34-2.42-.65-1.17-1.55-1.92-3.03-1.99-1.8-.08-3.5.22-5.19.76-1.91.62-3.82,1.17-5.85,1.13-.38,0-.79.01-1.29.64ZM27.36,22.94c.61.18.83.32,1.04.3,3.82-.28,6.78-2.26,9.17-5.03,1.72-2,1.58-3.93.02-6.13-2.8,4.1-6.59,7.26-10.23,10.85ZM25.53,27.28c.17,5.06-.74,9.67-1.46,14.44,4.57-2.22,5.66-11.53,1.46-14.44ZM21.74,40.83c1.12-.91,1.53-2.03,1.69-3.31.21-1.73.57-3.45.78-5.18.17-1.41.39-2.86-.38-4.31-.71.8-1.17,1.53-1.44,2.38-.4,1.29-.64,2.66-1.24,3.84-1.21,2.38-.3,4.42.58,6.59ZM29.48,27.89c1.92,1.24,3.74,2.46,5.82,3.26,2.78,1.07,3.78.85,6.23-2.17-4.35.49-8.07-1.18-12.05-1.09ZM20.31,29.39c-2.49.39-10.5,5.18-11.38,6.78,4.89-.38,7.98-3.42,11.38-6.78ZM24.94,2.63c1.74,4.84,2.12,9.65,1.68,14.54,2.52-4.37,1.94-12.8-1.68-14.54ZM28.39,20.18c1.03-.87,2.15-1.65,3.07-2.63,1.5-1.61,2.88-3.35,4.29-5.05.3-.36.61-.89.28-1.31-.45-.58-1.02-.11-1.51.07-.21.08-.39.28-.55.45-2.27,2.54-4.59,5.04-5.58,8.47ZM23.27,3.25c-1.1,3.42.15,9.16,2.24,11.07.36-3.98-.65-7.59-2.24-11.07ZM16.73,29.15c-3.74-.7-7.32,1.45-7.86,4.82,2.59-1.95,5.26-3.29,7.86-4.82Z"/>
  <path class="cls-1" d="M15.43,6.91c-1.27-.1-2.64-1.53-2.61-2.7.04-1.13,1.25-2.17,2.45-2.1,1.2.07,2.14,1.03,2.09,2.15-.04.92-1.34,2.7-1.94,2.65Z"/>
  <path class="cls-1" d="M14.44,13.74c-.33-.24-.66-.48-.98-.72-.5-.58-.57-1.26-.4-1.98.32-1.38,1.51-1.94,2.82-1.32.34.16.61.49,1.04.47l-.09-.08c.67,2.65.02,3.64-2.39,3.63Z"/>
</svg>