<?xml version="1.0" encoding="UTF-8"?>
<svg id="_レイヤー_1" data-name="レイヤー_1" xmlns="http://www.w3.org/2000/svg" viewBox="0 0 128.8 128.8">
  <defs>
    <style>
      .cls-1, .cls-2, .cls-3 {
        fill: none;
        stroke: #fff;
      }

      .cls-1, .cls-3 {
        stroke-miterlimit: 10;
      }

      .cls-2, .cls-3 {
        font-family: KozGoPr6N-Regular-90ms-RKSJ-H, 'Kozuka Gothic Pr6N';
        font-size: 12px;
      }
    </style>
  </defs>
  <g>
    <g>
      <circle class="cls-1" cx="64.4" cy="64.4" r="63.9"/>
      <circle class="cls-1" cx="67.62" cy="66.67" r="60.68"/>
    </g>
    <path class="cls-1" d="M106.17,28.39s1.28-2.17-1.79-2.17-27.19-.64-27.19-.64l-5.11.51s-1.32.81,0,.89,2.43.21,3.28.21,1.19.13,1.74-.64,1.66-3.06-.94-3.06h-4.67s-1.58-.3-1.8,1.15-.13,1.87-.55,1.96-2.68.09-2.68.09c0,0-.81.17-.64,1.45s.51,1.7-.81,1.79-3.79,0-3.79,0c0,0-1.96.38-1.74,2.17s-.26,4.09,1.74,4.26,45.2,0,45.2,0c0,0,2.71-.77,1.52,4l-3.23,37.87s0,1.28-1.96.94-8.94-3.06-10.3-6.55c-1.36-3.49-3.4-10.21.26-14.13,3.66-3.91,11.49-7.06,13.79-6.04s1.36.85,1.28,2.38-2.81,37.36-2.81,37.36c0,0-.77,4.09-3.49,3.66l-29.62.03s-3.15-.46-2.98-2.84l-4.94-52.43s-1.53-3.15,2.64-3.15,43.06.51,43.06.51c0,0,2.04,1.02,3.15-2.3l.68-3.74s-.26-2.04-1.7-2.04-45.19-.17-45.19-.17"/>
    <g>
      <g>
        <ellipse class="cls-1" cx="23.1" cy="72.27" rx="4.2" ry="2.89" transform="translate(-13.85 6.01) rotate(-11.42)"/>
        <path class="cls-1" d="M25.99,71.17s-1.9-.6-2.67.68c0,0-1.33,1.94-2.14.89s-1.83.63-1.83.63"/>
      </g>
      <g>
        <ellipse class="cls-1" cx="26.9" cy="63.97" rx="2.89" ry="4.2" transform="translate(-23.99 16.79) rotate(-24.36)"/>
        <path class="cls-1" d="M25.18,61.4s-.16,1.99,1.26,2.45c0,0,2.19.86,1.34,1.89s1.02,1.65,1.02,1.65"/>
      </g>
      <g>
        <ellipse class="cls-1" cx="34.9" cy="66.25" rx="4.2" ry="2.89" transform="translate(-38.74 52.67) rotate(-51.77)"/>
        <path class="cls-1" d="M36.39,63.54s-1.84.77-1.59,2.25c0,0,.25,2.34-1.06,2.06s-.99,1.66-.99,1.66"/>
      </g>
      <g>
        <ellipse class="cls-1" cx="36.34" cy="75.03" rx="2.89" ry="4.2" transform="translate(-46.83 69.35) rotate(-60.25)"/>
        <path class="cls-1" d="M39.24,76.1s-1.03-1.7-2.46-1.24c0,0-2.28.59-2.2-.74s-1.79-.74-1.79-.74"/>
      </g>
      <g>
        <ellipse class="cls-1" cx="28.25" cy="78.3" rx="4.2" ry="2.89" transform="translate(-54.98 77.34) rotate(-69.5)"/>
        <path class="cls-1" d="M28.84,75.26s-1.51,1.29-.83,2.63c0,0,.95,2.15-.38,2.29s-.44,1.89-.44,1.89"/>
      </g>
    </g>
    <g>
      <g>
        <ellipse class="cls-1" cx="44.11" cy="65.37" rx="2.51" ry="1.73" transform="translate(-12.07 10.03) rotate(-11.42)"/>
        <path class="cls-1" d="M45.83,64.71s-1.13-.36-1.59.41c0,0-.79,1.16-1.28.53s-1.09.37-1.09.37"/>
      </g>
      <g>
        <ellipse class="cls-1" cx="46.37" cy="60.42" rx="1.73" ry="2.51" transform="translate(-20.79 24.51) rotate(-24.36)"/>
        <path class="cls-1" d="M45.35,58.89s-.1,1.18.75,1.46c0,0,1.31.51.8,1.13s.61.98.61.98"/>
      </g>
      <g>
        <ellipse class="cls-1" cx="51.15" cy="61.78" rx="2.51" ry="1.73" transform="translate(-29.03 63.73) rotate(-51.77)"/>
        <path class="cls-1" d="M52.03,60.16s-1.09.46-.95,1.34c0,0,.15,1.39-.63,1.23s-.59.99-.59.99"/>
      </g>
      <g>
        <ellipse class="cls-1" cx="52.01" cy="67.02" rx="1.73" ry="2.51" transform="translate(-31.98 78.91) rotate(-60.25)"/>
        <path class="cls-1" d="M53.74,67.66s-.62-1.01-1.47-.74c0,0-1.36.35-1.31-.44s-1.07-.44-1.07-.44"/>
      </g>
      <g>
        <ellipse class="cls-1" cx="47.18" cy="68.96" rx="2.51" ry="1.73" transform="translate(-33.94 89.01) rotate(-69.5)"/>
        <path class="cls-1" d="M47.53,67.16s-.9.77-.5,1.57c0,0,.57,1.28-.23,1.36s-.26,1.13-.26,1.13"/>
      </g>
    </g>
    <g>
      <g>
        <ellipse class="cls-1" cx="30.34" cy="50.09" rx="2.72" ry="1.88" transform="translate(-9.32 7) rotate(-11.42)"/>
        <path class="cls-1" d="M32.21,49.37s-1.23-.39-1.73.44c0,0-.86,1.26-1.39.57s-1.19.41-1.19.41"/>
      </g>
      <g>
        <ellipse class="cls-1" cx="32.79" cy="44.71" rx="1.88" ry="2.72" transform="translate(-15.52 17.51) rotate(-24.36)"/>
        <path class="cls-1" d="M31.68,43.05s-.1,1.29.82,1.59c0,0,1.42.55.87,1.23s.66,1.07.66,1.07"/>
      </g>
      <g>
        <ellipse class="cls-1" cx="37.98" cy="46.19" rx="2.72" ry="1.88" transform="translate(-21.8 47.44) rotate(-51.77)"/>
        <path class="cls-1" d="M38.94,44.43s-1.19.5-1.03,1.46c0,0,.16,1.52-.69,1.34s-.64,1.08-.64,1.08"/>
      </g>
      <g>
        <ellipse class="cls-1" cx="38.91" cy="51.88" rx="1.88" ry="2.72" transform="translate(-25.44 59.91) rotate(-60.25)"/>
        <path class="cls-1" d="M40.79,52.57s-.67-1.1-1.59-.81c0,0-1.47.38-1.42-.48s-1.16-.48-1.16-.48"/>
      </g>
      <g>
        <ellipse class="cls-1" cx="33.67" cy="53.99" rx="2.72" ry="1.88" transform="translate(-28.69 66.62) rotate(-69.5)"/>
        <path class="cls-1" d="M34.05,52.03s-.98.84-.54,1.7c0,0,.61,1.39-.25,1.48s-.28,1.22-.28,1.22"/>
      </g>
    </g>
    <text class="cls-2" transform="translate(37.27 93.28)"><tspan x="0" y="0">Hana</tspan></text>
    <text class="cls-3" transform="translate(25.55 108.59)"><tspan x="0" y="0">CAFE nappa69</tspan></text>
  </g>
  <text/>
</svg>