<?xml version="1.0" encoding="UTF-8"?>
<svg id="_レイヤー_1" data-name="レイヤー_1" xmlns="http://www.w3.org/2000/svg" xmlns:xlink="http://www.w3.org/1999/xlink" viewBox="0 0 80 19">
  <defs>
    <style>
      .cls-1 {
        fill: #865b24;
      }

      .cls-2 {
        fill: none;
      }

      .cls-3 {
        fill: #ceccb5;
      }

      .cls-4 {
        clip-path: url(#clippath);
      }
    </style>
    <clipPath id="clippath">
      <rect class="cls-2" x="5" y="6" width="10" height="9"/>
    </clipPath>
  </defs>
  <rect class="cls-3" width="80" height="19"/>
  <g class="cls-4">
    <g>
      <path class="cls-1" d="M7.05,6.74l1.03,1.09c.11.11.11.33,0,.48l-.1.14c-.11.15-.28.18-.39.06l-1.03-1.09c-.11-.11-.28-.09-.39.06l-.1.14c-.11.15-.11.36,0,.48l1.03,1.09c.11.11.11.33,0,.48l-.1.14c-.11.15-.28.18-.39.06l-1.03-1.09c-.11-.11-.28-.09-.39.06l-.1.14c-.11.15-.11.36,0,.48l1.22,1.29c.46.48,1.11.56,1.69.27.1-.05.2-.03.28.04l3.67,3.88c.11.11.28.09.39-.06l.61-.83c.11-.15.11-.36,0-.48l-3.67-3.88c-.07-.08-.1-.2-.07-.32.16-.74.02-1.51-.44-1.99l-1.22-1.29c-.11-.11-.28-.09-.39.06l-.1.14c-.11.15-.11.36,0,.48Z"/>
      <path class="cls-1" d="M14.32,10.51c.79-.77.91-2.17.26-3.14-.65-.97-1.81-1.13-2.6-.36-.54.52-.76,1.34-.65,2.11.02.12-.01.24-.09.32l-3.99,3.87c-.12.11-.13.33-.03.48l.58.86c.1.15.28.19.4.07l3.99-3.87c.08-.07.18-.09.28-.04.6.3,1.32.21,1.85-.31h0Z"/>
    </g>
  </g>
  <path d="M28.07,9.66h1.01v5.17c0,.59-.16.87-.62,1.01-.47.14-1.22.16-2.37.16-.06-.27-.23-.68-.38-.95.91.04,1.79.03,2.05.01.23-.01.3-.06.3-.26v-5.15ZM23.91,4.8h8.2v.9h-8.2v-.9ZM31.75,4.8h.26l.22-.07.7.55c-1.08,1.09-2.69,2.28-4.03,3.02-.13-.21-.43-.51-.61-.66,1.21-.64,2.73-1.78,3.46-2.63v-.21ZM22.69,8.94h10.88v.94h-10.88v-.94ZM25.69,7.2l.51-.71c1.51.61,3.64,1.55,4.76,2.12l-.53.83c-1.07-.59-3.18-1.57-4.73-2.24ZM33.23,8.94h.19l.18-.07.78.35c-.7,1.14-1.53,2.41-2.33,3.19l-.82-.48c.66-.7,1.47-1.83,1.99-2.81v-.18ZM41.64,9.67l.79-.4c.74.91,1.52,2.16,1.83,2.99l-.86.45c-.29-.82-1.04-2.11-1.77-3.04ZM41.72,6.43h4.94v.92h-4.94v-.92ZM46.27,6.43h.94v.51c-.22,5.86-.43,7.89-.96,8.54-.3.38-.58.48-1.08.53-.44.04-1.24.03-2.01-.03-.03-.29-.14-.7-.31-.98.86.08,1.66.08,1.99.08.26,0,.43-.03.56-.19.45-.47.68-2.63.88-8.24v-.22ZM42.2,4.08l1,.22c-.57,1.88-1.47,3.7-2.46,4.89-.19-.16-.62-.44-.87-.57,1.01-1.09,1.85-2.81,2.33-4.54ZM37.53,4.09l.87.33c-.49.96-1.12,2.12-1.62,2.82l-.68-.29c.49-.75,1.09-2,1.43-2.86ZM39.11,5.57l.84.36c-.91,1.46-2.18,3.33-3.17,4.45l-.62-.32c1-1.16,2.24-3.11,2.95-4.49ZM35.48,6.82l.49-.65c.73.61,1.55,1.47,1.9,2.04l-.52.74c-.35-.61-1.17-1.51-1.87-2.13ZM38.69,8.59l.73-.31c.55.83,1.11,1.95,1.3,2.66l-.78.36c-.19-.73-.72-1.86-1.25-2.72ZM35.46,9.9c1.17-.04,2.9-.1,4.61-.18v.79c-1.65.1-3.3.19-4.54.26l-.08-.87ZM39.02,11.7l.74-.23c.38.79.74,1.82.88,2.5l-.79.27c-.12-.68-.47-1.73-.83-2.53ZM36.17,11.52l.85.16c-.18,1.22-.51,2.48-.92,3.32-.17-.1-.56-.29-.77-.38.43-.79.69-1.95.84-3.09ZM37.67,10.28h.88v5.8h-.88v-5.8ZM56.15,4.7c-.03.16-.07.66-.07.82-.04.85-.01,3.35,0,4.39l-.99-.51c0-.57-.01-3.16-.05-3.87-.03-.35-.07-.71-.09-.83h1.2ZM49.24,6.52c1.77-.03,5.02-.14,7.02-.14,1.59,0,3.2,0,3.81.01v.96c-.74-.04-1.91-.07-3.82-.07-2.24,0-5.02.09-6.98.23l-.03-1ZM56.06,10.29c0,1.74-.81,2.61-1.99,2.61-1.09,0-2.15-.77-2.15-2.18,0-1.29,1.07-2.25,2.3-2.25,1.51,0,2.27,1.12,2.27,2.61,0,1.77-.86,3.72-3.87,4.61l-.87-.84c2.37-.56,3.74-1.72,3.74-3.86,0-1.17-.57-1.66-1.27-1.66s-1.33.53-1.33,1.38.61,1.29,1.33,1.29c.81,0,1.33-.68,1.12-2.07l.72.36ZM64.09,5.43c.29.03.65.04.91.04.69,0,3.77-.09,4.46-.16.39-.04.57-.07.72-.12l.6.77c-.23.16-.49.32-.74.52-.64.49-2.41,2.01-3.42,2.85.6-.19,1.22-.26,1.81-.26,2.16,0,3.71,1.29,3.71,3.04,0,2.09-1.73,3.46-4.49,3.46-1.77,0-2.85-.77-2.85-1.86,0-.88.81-1.69,2-1.69,1.73,0,2.6,1.22,2.69,2.53l-.94.16c-.08-1.1-.72-1.9-1.76-1.9-.6,0-1.05.36-1.05.82,0,.64.71,1.01,1.74,1.01,2.21,0,3.6-.91,3.6-2.53,0-1.29-1.22-2.24-2.92-2.24-2.16,0-3.33.91-4.97,2.59l-.75-.75c1.08-.88,2.76-2.29,3.5-2.93.73-.6,2.37-1.96,3.02-2.55-.69.04-3.29.14-3.97.18-.3.03-.58.04-.87.08l-.03-1.07Z"/>
</svg>