<?xml version="1.0" encoding="UTF-8"?>
<svg id="_レイヤー_1" data-name="レイヤー_1" xmlns="http://www.w3.org/2000/svg" viewBox="0 0 841.89 595.28">
  <defs>
    <style>
      .cls-1 {
        fill: #865b24;
      }
    </style>
  </defs>
  <path class="cls-1" d="M396.46,272.66l8.21,7.22c.86.76.86,2.17-.01,3.16l-.8.91c-.87.99-2.27,1.17-3.13.41l-8.21-7.22c-.86-.76-2.26-.57-3.13.41l-.8.91c-.87.99-.87,2.4-.01,3.16l8.21,7.22c.86.76.86,2.17-.01,3.16l-.8.91c-.87.99-2.27,1.17-3.13.41l-8.21-7.22c-.86-.76-2.26-.57-3.13.41l-.8.91c-.87.99-.87,2.4-.01,3.16l9.77,8.6c3.64,3.2,8.87,3.7,13.55,1.78.79-.32,1.63-.23,2.2.27l29.36,25.83c.86.76,2.26.57,3.13-.41l4.87-5.54c.87-.99.87-2.4.01-3.16l-29.36-25.83c-.57-.5-.77-1.33-.55-2.15,1.3-4.89.14-10.02-3.49-13.22l-9.77-8.6c-.86-.76-2.26-.57-3.13.41l-.8.91c-.87.99-.87,2.4-.01,3.16Z"/>
  <path class="cls-1" d="M454.56,297.69c6.33-5.1,7.27-14.44,2.1-20.86-5.17-6.42-14.5-7.5-20.83-2.4-4.31,3.47-6.11,8.9-5.2,14.04.15.82-.11,1.62-.72,2.11l-31.94,25.72c-.94.75-1.03,2.19-.2,3.22l4.63,5.74c.82,1.02,2.25,1.24,3.19.49l31.94-25.72c.61-.49,1.44-.57,2.21-.25,4.83,1.99,10.52,1.38,14.83-2.09Z"/>
</svg>