<?xml version="1.0" encoding="UTF-8"?>
<svg id="_レイヤー_1" data-name="レイヤー_1" xmlns="http://www.w3.org/2000/svg" xmlns:xlink="http://www.w3.org/1999/xlink" viewBox="0 0 85 298.5">
  <defs>
    <style>
      .cls-1 {
        fill: #040000;
      }

      .cls-2 {
        fill: #cccab3;
      }

      .cls-3 {
        fill: none;
      }

      .cls-4 {
        fill: #835a25;
      }

      .cls-5 {
        clip-path: url(#clippath);
      }
    </style>
    <clipPath id="clippath">
      <rect class="cls-3" x="19.93" y="37" width="45.14" height="32.71"/>
    </clipPath>
  </defs>
  <path class="cls-2" d="M0,0h85v298.5H0V0Z"/>
  <g class="cls-5">
    <g>
      <path class="cls-4" d="M29.2,39.71l4.63,3.95c.49.42.49,1.19,0,1.73l-.45.5c-.49.54-1.28.64-1.77.22l-4.63-3.95c-.49-.42-1.28-.31-1.77.22l-.45.5c-.49.54-.49,1.31,0,1.73l4.63,3.95c.49.42.49,1.19,0,1.73l-.45.5c-.49.54-1.28.64-1.77.22l-4.63-3.95c-.49-.42-1.28-.31-1.77.22l-.45.5c-.49.54-.49,1.31,0,1.73l5.51,4.7c2.05,1.75,5.01,2.02,7.65.97.45-.17.92-.13,1.24.15l16.57,14.12c.49.42,1.28.31,1.77-.22l2.75-3.03c.49-.54.49-1.31,0-1.73l-16.57-14.12c-.32-.27-.43-.73-.31-1.18.73-2.67.08-5.48-1.97-7.23l-5.53-4.69c-.49-.42-1.28-.31-1.77.22l-.45.5c-.49.54-.49,1.31,0,1.73Z"/>
      <path class="cls-4" d="M62,53.39c3.57-2.79,4.1-7.89,1.19-11.4-2.92-3.51-8.18-4.1-11.76-1.31-2.43,1.9-3.45,4.87-2.94,7.68.08.45-.06.89-.41,1.15l-18.03,14.06c-.53.41-.58,1.2-.11,1.76l2.61,3.14c.46.56,1.27.68,1.8.27l18.03-14.06c.34-.27.81-.31,1.25-.14,2.73,1.09,5.94.75,8.37-1.14h0Z"/>
    </g>
  </g>
  <path class="cls-1" d="M41.94,124.56h2.5v12.74c0,1.44-.38,2.14-1.54,2.5-1.15.35-3.01.38-5.82.38-.16-.67-.58-1.66-.93-2.34,2.24.1,4.42.06,5.06.03.58-.03.74-.16.74-.64v-12.67ZM31.7,112.59h20.19v2.21h-20.19v-2.21ZM51,112.59h.64l.54-.16,1.73,1.34c-2.66,2.69-6.62,5.6-9.92,7.42-.32-.51-1.06-1.25-1.5-1.63,2.98-1.57,6.72-4.38,8.51-6.46v-.51ZM28.7,122.8h26.78v2.3h-26.78v-2.3ZM36.09,118.51l1.25-1.76c3.71,1.5,8.96,3.81,11.71,5.22l-1.31,2.05c-2.62-1.44-7.84-3.87-11.65-5.5ZM54.65,122.8h.48l.45-.16,1.92.86c-1.73,2.82-3.78,5.92-5.73,7.84l-2.02-1.18c1.63-1.73,3.62-4.51,4.9-6.91v-.45ZM43.35,163.59l1.95-.99c1.82,2.24,3.74,5.31,4.51,7.36l-2.11,1.12c-.7-2.02-2.56-5.18-4.35-7.49ZM43.54,155.63h12.16v2.27h-12.16v-2.27ZM54.74,155.63h2.3v1.25c-.54,14.43-1.06,19.42-2.37,21.02-.74.93-1.44,1.18-2.66,1.31-1.09.1-3.04.06-4.96-.06-.06-.7-.35-1.73-.77-2.4,2.11.19,4.1.19,4.9.19.64,0,1.06-.06,1.38-.48,1.12-1.15,1.66-6.46,2.18-20.29v-.54ZM44.73,149.83l2.46.54c-1.41,4.64-3.62,9.12-6.05,12.03-.48-.38-1.54-1.09-2.14-1.41,2.5-2.69,4.54-6.91,5.73-11.17ZM33.24,149.87l2.14.8c-1.22,2.37-2.75,5.22-4,6.94l-1.66-.7c1.22-1.86,2.69-4.93,3.52-7.04ZM37.11,153.51l2.08.9c-2.24,3.58-5.38,8.19-7.81,10.94l-1.54-.8c2.46-2.85,5.5-7.65,7.26-11.04ZM28.18,156.59l1.22-1.6c1.79,1.5,3.81,3.62,4.67,5.02l-1.28,1.82c-.86-1.5-2.88-3.71-4.61-5.25ZM36.09,160.94l1.79-.77c1.34,2.05,2.72,4.8,3.2,6.56l-1.92.9c-.48-1.79-1.76-4.58-3.07-6.69ZM28.12,164.17c2.88-.1,7.14-.26,11.36-.45v1.95c-4.06.26-8.13.48-11.17.64l-.19-2.14ZM36.89,168.59l1.82-.58c.93,1.95,1.82,4.48,2.18,6.14l-1.95.67c-.29-1.66-1.15-4.26-2.05-6.24ZM29.88,168.14l2.08.38c-.45,3.01-1.25,6.11-2.27,8.16-.42-.26-1.38-.7-1.89-.93,1.06-1.95,1.7-4.8,2.08-7.62ZM33.56,165.1h2.18v14.27h-2.18v-14.27ZM47.06,190.37c-.06.38-.16,1.63-.16,2.02-.1,2.08-.03,8.26,0,10.82l-2.43-1.25c0-1.41-.03-7.78-.13-9.54-.06-.86-.16-1.76-.22-2.05h2.94ZM30.04,194.85c4.35-.06,12.35-.35,17.28-.35,3.9,0,7.87,0,9.38.03l-.03,2.37c-1.79-.1-4.67-.16-9.38-.16-5.5,0-12.35.22-17.18.58l-.06-2.46ZM46.84,204.13c0,4.29-1.98,6.43-4.9,6.43-2.69,0-5.28-1.89-5.28-5.38,0-3.17,2.62-5.54,5.66-5.54,3.71,0,5.6,2.75,5.6,6.43,0,4.35-2.11,9.15-9.54,11.36l-2.14-2.08c5.82-1.38,9.22-4.22,9.22-9.5,0-2.88-1.41-4.1-3.14-4.1s-3.26,1.31-3.26,3.39,1.5,3.17,3.26,3.17c1.98,0,3.26-1.66,2.75-5.09l1.76.9ZM34.62,231.16c.7.06,1.6.1,2.24.1,1.7,0,9.28-.22,10.98-.38.96-.1,1.41-.16,1.76-.29l1.47,1.89c-.58.38-1.22.8-1.82,1.28-1.57,1.22-5.92,4.96-8.42,7.01,1.47-.48,3.01-.64,4.45-.64,5.31,0,9.12,3.17,9.12,7.49,0,5.15-4.26,8.51-11.04,8.51-4.35,0-7.01-1.89-7.01-4.58,0-2.18,1.98-4.16,4.93-4.16,4.26,0,6.4,3.01,6.62,6.24l-2.3.38c-.19-2.72-1.76-4.67-4.32-4.67-1.47,0-2.59.9-2.59,2.02,0,1.57,1.76,2.5,4.29,2.5,5.44,0,8.86-2.24,8.86-6.24,0-3.17-3.01-5.5-7.2-5.5-5.31,0-8.19,2.24-12.22,6.37l-1.86-1.86c2.66-2.18,6.78-5.63,8.61-7.2,1.79-1.47,5.82-4.83,7.42-6.27-1.7.1-8.1.35-9.76.45-.74.06-1.44.1-2.14.19l-.06-2.62Z"/>
</svg>